<svg width="42" height="42" xmlns="http://www.w3.org/2000/svg"><path d="M21 41.833C9.494 41.833.167 32.506.167 21 .167 9.494 9.494.167 21 .167 32.506.167 41.833 9.494 41.833 21c0 11.506-9.327 20.833-20.833 20.833zm0-3.125c9.78 0 17.708-7.928 17.708-17.708 0-9.78-7.928-17.708-17.708-17.708C11.22 3.292 3.292 11.22 3.292 21c0 9.78 7.928 17.708 17.708 17.708zm-4.042-13.6l11.559-11.929a1.664 1.664 0 0 1 2.402 0 1.788 1.788 0 0 1 0 2.476L18.16 28.821a1.664 1.664 0 0 1-2.403 0l-4.675-4.823a1.788 1.788 0 0 1 0-2.476 1.664 1.664 0 0 1 2.402 0l3.475 3.585z" fill="#0C8140" fill-rule="evenodd"/></svg>