<?xml version="1.0" encoding="UTF-8" standalone="no"?>
<svg
   xmlns:dc="http://purl.org/dc/elements/1.1/"
   xmlns:cc="http://creativecommons.org/ns#"
   xmlns:rdf="http://www.w3.org/1999/02/22-rdf-syntax-ns#"
   xmlns:svg="http://www.w3.org/2000/svg"
   xmlns="http://www.w3.org/2000/svg"
   xmlns:sodipodi="http://sodipodi.sourceforge.net/DTD/sodipodi-0.dtd"
   xmlns:inkscape="http://www.inkscape.org/namespaces/inkscape"
   inkscape:version="1.0beta2 (2b71d25, 2019-12-03)"
   sodipodi:docname="Consumer-white.svg"
   id="svg230"
   version="1.1"
   height="15"
   width="15">
  <metadata
     id="metadata236">
    <rdf:RDF>
      <cc:Work
         rdf:about="">
        <dc:format>image/svg+xml</dc:format>
        <dc:type
           rdf:resource="http://purl.org/dc/dcmitype/StillImage" />
        <dc:title></dc:title>
      </cc:Work>
    </rdf:RDF>
  </metadata>
  <defs
     id="defs234" />
  <sodipodi:namedview
     inkscape:current-layer="svg230"
     inkscape:window-maximized="0"
     inkscape:window-y="1171"
     inkscape:window-x="0"
     inkscape:cy="7.5"
     inkscape:cx="7.5"
     inkscape:zoom="20.933333"
     showgrid="false"
     id="namedview232"
     inkscape:window-height="480"
     inkscape:window-width="642"
     inkscape:pageshadow="2"
     inkscape:pageopacity="0"
     guidetolerance="10"
     gridtolerance="10"
     objecttolerance="10"
     borderopacity="1"
     inkscape:document-rotation="0"
     bordercolor="#666666"
     pagecolor="#ffffff" />
  <path
     style="fill:#ffffff"
     id="path228"
     d="M5.25 15a1.5 1.5 0 1 1 0-3 1.5 1.5 0 0 1 0 3zM12 15a1.5 1.5 0 1 1 0-3 1.5 1.5 0 0 1 0 3zM.918 2.25H.75A.75.75 0 0 1 0 1.5V.75A.75.75 0 0 1 .75 0h1.294c1.187 0 1.431.876 1.55 2.026l.022.221H5.23l.066.003h7.454a2.25 2.25 0 0 1 2.235 2.498l-.42 4.5a2.249 2.249 0 0 1-2.235 2.002H4.935A2.25 2.25 0 0 1 2.7 9.248l-.587-5.916A1.2 1.2 0 0 0 .918 2.25zM4.19 9.083a.75.75 0 0 0 .745.667h7.395c.382 0 .7-.287.742-.667l.42-4.5c.004-.028.008-.055.008-.083a.75.75 0 0 0-.75-.75H4.56a.8.8 0 0 0-.796.876l.426 4.457z"
     fill-rule="evenodd"
     fill="#ED6D4E" />
</svg>
