<svg xmlns="http://www.w3.org/2000/svg" width="15" height="15"><path fill="#ED6D4E" fill-rule="evenodd" d="M5.25 15a1.5 1.5 0 1 1 0-3 1.5 1.5 0 0 1 0 3zM12 15a1.5 1.5 0 1 1 0-3 1.5 1.5 0 0 1 0 3zM.918 2.25H.75A.75.75 0 0 1 0 1.5V.75A.75.75 0 0 1 .75 0h1.294c1.187 0 1.431.876 1.55 2.026l.022.221H5.23l.066.003h7.454a2.25 2.25 0 0 1 2.235 2.498l-.42 4.5a2.249 2.249 0 0 1-2.235 2.002H4.935A2.25 2.25 0 0 1 2.7 9.248l-.587-5.916A1.2 1.2 0 0 0 .918 2.25zM4.19 9.083a.75.75 0 0 0 .745.667h7.395c.382 0 .7-.287.742-.667l.42-4.5c.004-.028.008-.055.008-.083a.75.75 0 0 0-.75-.75H4.56a.8.8 0 0 0-.796.876l.426 4.457z"/></svg>
