<svg width="18" height="18" xmlns="http://www.w3.org/2000/svg"><g fill="none" fill-rule="evenodd"><path d="M-1-1h20v20H-1z"/><path d="M4.417 9.833h9.166a3.75 3.75 0 0 1 0 7.5H4.417a3.75 3.75 0 0 1 0-7.5zM13.583.667a3.75 3.75 0 0 1 0 7.5H4.417a3.75 3.75 0 1 1 0-7.5h9.166zm0 14.166a1.25 1.25 0 1 1 0-2.5 1.25 1.25 0 0 1 0 2.5zM4.417 11.5a2.083 2.083 0 1 0 0 4.167h9.166a2.083 2.083 0 1 0 0-4.167H4.417zm9.166-9.167H4.417a2.083 2.083 0 0 0 0 4.167h9.166a2.083 2.083 0 1 0 0-4.167zM4.417 5.667a1.25 1.25 0 1 1 0-2.5 1.25 1.25 0 0 1 0 2.5z" fill="#A2AEAB"/></g></svg>