<svg xmlns="http://www.w3.org/2000/svg" width="15" height="15"><path fill="#0C8140" fill-rule="evenodd" d="M7.97 0h.06c.45 0 .8.36.8.8v13.4a.8.8 0 0 1-.8.8h-.06a.8.8 0 0 1-.8-.8V.8c0-.44.35-.8.8-.8zm1.87.84a3.79 3.79 0 0 1 3.15 3.2.84.84 0 1 1-1.66.24 2.1 2.1 0 0 0-1.5-1.72.23.23 0 0 1-.16-.22V.98a.15.15 0 0 1 .17-.14zm-3.5 7.5l-.12-.02A3.77 3.77 0 0 1 3 4.57 3.77 3.77 0 0 1 6.17.84a.14.14 0 0 1 .16.14v1.35c0 .1-.07.2-.16.22a2.1 2.1 0 0 0-1.5 2.02c0 1.01.7 1.87 1.66 2.06v1.7zm-.18 5.82a3.79 3.79 0 0 1-3.15-3.2.84.84 0 1 1 1.66-.24 2.1 2.1 0 0 0 1.54 1.73c.07.02.12.09.12.17v1.4a.15.15 0 0 1-.17.14zm3.5-7.5l.12.02A3.77 3.77 0 0 1 13 10.43a3.77 3.77 0 0 1-3.17 3.73.14.14 0 0 1-.16-.14v-1.4c0-.08.05-.14.12-.16l.04-.01a2.1 2.1 0 0 0 1.5-2.02c0-1.01-.7-1.87-1.66-2.06v-1.7z"/></svg>
