<svg xmlns="http://www.w3.org/2000/svg" width="15" height="15"><g fill="none" fill-rule="evenodd"><path d="M0 0h15v15H0z"/><rect width="1.25" height="2.5" x="2.5" y="11.25" fill="#0F1E32" rx=".625"/><path fill="#0F1E32" d="M3.75 8.125V10a.625.625 0 1 1-1.25 0V1.875a.625.625 0 1 1 1.25 0c1.042-.417 1.875-.625 2.5-.625s1.25.208 1.875.625c.625.417 1.25.625 1.875.625.736 0 1.368-.208 1.896-.624.04-.03.1-.088.181-.171a.247.247 0 0 1 .423.173v5.424a.568.568 0 0 1-.123.353c-.61.73-1.402 1.095-2.377 1.095-.625 0-1.25-.208-1.875-.625C7.5 7.708 6.875 7.5 6.25 7.5s-1.458.208-2.5.625zM11 3.645c-.319.07-.653.105-1 .105-.885 0-1.747-.287-2.568-.835-.43-.286-.817-.415-1.182-.415-.438 0-1.129.173-2.036.536l-.337.135a.202.202 0 0 0-.127.187v3.165a.186.186 0 0 0 .249.176c.864-.297 1.609-.449 2.251-.449.885 0 1.747.287 2.568.835.43.286.817.415 1.182.415.454 0 .817-.113 1.127-.36a.357.357 0 0 0 .123-.269V3.839a.2.2 0 0 0-.25-.194z"/></g></svg>
