<?xml version="1.0" encoding="UTF-8" standalone="no"?>
<svg
   xmlns:dc="http://purl.org/dc/elements/1.1/"
   xmlns:cc="http://creativecommons.org/ns#"
   xmlns:rdf="http://www.w3.org/1999/02/22-rdf-syntax-ns#"
   xmlns:svg="http://www.w3.org/2000/svg"
   xmlns="http://www.w3.org/2000/svg"
   xmlns:sodipodi="http://sodipodi.sourceforge.net/DTD/sodipodi-0.dtd"
   xmlns:inkscape="http://www.inkscape.org/namespaces/inkscape"
   inkscape:version="1.0beta2 (2b71d25, 2019-12-03)"
   sodipodi:docname="Government-white.svg"
   id="svg314"
   version="1.1"
   height="15"
   width="15">
  <metadata
     id="metadata320">
    <rdf:RDF>
      <cc:Work
         rdf:about="">
        <dc:format>image/svg+xml</dc:format>
        <dc:type
           rdf:resource="http://purl.org/dc/dcmitype/StillImage" />
        <dc:title></dc:title>
      </cc:Work>
    </rdf:RDF>
  </metadata>
  <defs
     id="defs318" />
  <sodipodi:namedview
     inkscape:current-layer="svg314"
     inkscape:window-maximized="0"
     inkscape:window-y="1171"
     inkscape:window-x="0"
     inkscape:cy="7.5"
     inkscape:cx="7.5"
     inkscape:zoom="20.933333"
     showgrid="false"
     id="namedview316"
     inkscape:window-height="480"
     inkscape:window-width="648"
     inkscape:pageshadow="2"
     inkscape:pageopacity="0"
     guidetolerance="10"
     gridtolerance="10"
     objecttolerance="10"
     borderopacity="1"
     inkscape:document-rotation="0"
     bordercolor="#666666"
     pagecolor="#ffffff" />
  <g
     style="fill:#ffffff"
     id="g312"
     fill-rule="evenodd"
     fill="none">
    <path
       style="fill:#ffffff"
       id="path306"
       d="M0 0h15v15H0z" />
    <rect
       style="fill:#ffffff"
       id="rect308"
       rx=".625"
       fill="#0F1E32"
       y="11.25"
       x="2.5"
       height="2.5"
       width="1.25" />
    <path
       style="fill:#ffffff"
       id="path310"
       d="M3.75 8.125V10a.625.625 0 1 1-1.25 0V1.875a.625.625 0 1 1 1.25 0c1.042-.417 1.875-.625 2.5-.625s1.25.208 1.875.625c.625.417 1.25.625 1.875.625.736 0 1.368-.208 1.896-.624.04-.03.1-.088.181-.171a.247.247 0 0 1 .423.173v5.424a.568.568 0 0 1-.123.353c-.61.73-1.402 1.095-2.377 1.095-.625 0-1.25-.208-1.875-.625C7.5 7.708 6.875 7.5 6.25 7.5s-1.458.208-2.5.625zM11 3.645c-.319.07-.653.105-1 .105-.885 0-1.747-.287-2.568-.835-.43-.286-.817-.415-1.182-.415-.438 0-1.129.173-2.036.536l-.337.135a.202.202 0 0 0-.127.187v3.165a.186.186 0 0 0 .249.176c.864-.297 1.609-.449 2.251-.449.885 0 1.747.287 2.568.835.43.286.817.415 1.182.415.454 0 .817-.113 1.127-.36a.357.357 0 0 0 .123-.269V3.839a.2.2 0 0 0-.25-.194z"
       fill="#0F1E32" />
  </g>
</svg>
