<svg xmlns="http://www.w3.org/2000/svg" width="15" height="15"><path fill="#FF4242" fill-rule="evenodd" d="M10.54 12.25H4.46a1.88 1.88 0 0 1-1.83 2.25 1.88 1.88 0 0 1-1.74-2.59A2 2 0 0 1 0 10.25V2.5C0 1.67.67 1 1.5 1H9c.83 0 1.5.67 1.5 1.5v.75h1.63c.4 0 .78.16 1.06.44l1.37 1.37c.28.28.44.66.44 1.06v4.13a2 2 0 0 1-.89 1.66 1.87 1.87 0 0 1-1.73 2.59 1.88 1.88 0 0 1-1.84-2.25zm.76-1.5h1.4a.8.8 0 0 0 .8-.8v-3a2 2 0 0 0-.59-1.41l-.2-.21a1.97 1.97 0 0 0-1.4-.58h-.01a.8.8 0 0 0-.8.8v4.4c0 .44.36.8.8.8zm-2.3-3V2.8a.3.3 0 0 0-.3-.3H1.8a.3.3 0 0 0-.3.3v7.65c0 .17.13.3.3.3h6.9a.3.3 0 0 0 .3-.3v-1.2H3a.75.75 0 0 1 0-1.5h6zM2.62 13a.37.37 0 1 0 0-.75.37.37 0 0 0 0 .75zm9.75 0a.37.37 0 1 0 0-.75.37.37 0 0 0 0 .75z"/></svg>
