<?xml version="1.0" encoding="UTF-8" standalone="no"?>
<svg
   xmlns:dc="http://purl.org/dc/elements/1.1/"
   xmlns:cc="http://creativecommons.org/ns#"
   xmlns:rdf="http://www.w3.org/1999/02/22-rdf-syntax-ns#"
   xmlns:svg="http://www.w3.org/2000/svg"
   xmlns="http://www.w3.org/2000/svg"
   xmlns:sodipodi="http://sodipodi.sourceforge.net/DTD/sodipodi-0.dtd"
   xmlns:inkscape="http://www.inkscape.org/namespaces/inkscape"
   inkscape:version="1.0beta2 (2b71d25, 2019-12-03)"
   sodipodi:docname="Information Technologywhite.svg"
   id="svg610"
   version="1.1"
   height="15"
   width="17">
  <metadata
     id="metadata616">
    <rdf:RDF>
      <cc:Work
         rdf:about="">
        <dc:format>image/svg+xml</dc:format>
        <dc:type
           rdf:resource="http://purl.org/dc/dcmitype/StillImage" />
        <dc:title></dc:title>
      </cc:Work>
    </rdf:RDF>
  </metadata>
  <defs
     id="defs614" />
  <sodipodi:namedview
     inkscape:current-layer="svg610"
     inkscape:window-maximized="0"
     inkscape:window-y="1171"
     inkscape:window-x="0"
     inkscape:cy="7.5"
     inkscape:cx="8.5"
     inkscape:zoom="20.933333"
     showgrid="false"
     id="namedview612"
     inkscape:window-height="480"
     inkscape:window-width="642"
     inkscape:pageshadow="2"
     inkscape:pageopacity="0"
     guidetolerance="10"
     gridtolerance="10"
     objecttolerance="10"
     borderopacity="1"
     inkscape:document-rotation="0"
     bordercolor="#666666"
     pagecolor="#ffffff" />
  <path
     style="fill:#ffffff"
     id="path608"
     fill-rule="evenodd"
     fill="#21BEDA"
     d="M6.667 13.333V12.5H2.5A2.5 2.5 0 0 1 0 10V2.5A2.5 2.5 0 0 1 2.5 0h11.667a2.5 2.5 0 0 1 2.5 2.5V10a2.5 2.5 0 0 1-2.5 2.5H10v.833h3.333a.833.833 0 0 1 0 1.667h-10a.833.833 0 1 1 0-1.667h3.334zM15 2.5a.833.833 0 0 0-.833-.833H2.5a.833.833 0 0 0-.833.833V10c0 .46.373.833.833.833h11.667c.46 0 .833-.373.833-.833V2.5z" />
</svg>
