<svg width="17" height="23" xmlns="http://www.w3.org/2000/svg"><g fill="none" fill-rule="evenodd"><path d="M-4-1h24v24H-4z"/><path d="M8.078 12.552a2 2 0 0 0-1 3.732v1.268a1 1 0 1 0 2 0v-1.268a2 2 0 0 0-1-3.732m6.078 7.059c0 .552-.449 1-1 1H3a1 1 0 0 1-1-1v-8.116c0-.272.11-.516.285-.696A.998.998 0 0 1 3 10.495h10.156c.281 0 .533.118.715.304a.998.998 0 0 1 .285.696v8.116zM4.285 5.793A3.797 3.797 0 0 1 8.078 2a3.797 3.797 0 0 1 3.793 3.793v2.702H4.285V5.793zm9.586 2.797V5.793A5.8 5.8 0 0 0 8.078 0a5.8 5.8 0 0 0-5.793 5.793V8.59A3 3 0 0 0 0 11.495v8.116c0 1.654 1.345 3 3 3h10.156c1.654 0 3-1.346 3-3v-8.116a3 3 0 0 0-2.285-2.905z" fill="#707D87"/></g></svg>