<?xml version="1.0" encoding="UTF-8" standalone="no"?>
<svg
   xmlns:dc="http://purl.org/dc/elements/1.1/"
   xmlns:cc="http://creativecommons.org/ns#"
   xmlns:rdf="http://www.w3.org/1999/02/22-rdf-syntax-ns#"
   xmlns:svg="http://www.w3.org/2000/svg"
   xmlns="http://www.w3.org/2000/svg"
   xmlns:sodipodi="http://sodipodi.sourceforge.net/DTD/sodipodi-0.dtd"
   xmlns:inkscape="http://www.inkscape.org/namespaces/inkscape"
   inkscape:version="1.0beta2 (2b71d25, 2019-12-03)"
   sodipodi:docname="TMT-white.svg"
   id="svg754"
   version="1.1"
   height="15"
   width="15">
  <metadata
     id="metadata760">
    <rdf:RDF>
      <cc:Work
         rdf:about="">
        <dc:format>image/svg+xml</dc:format>
        <dc:type
           rdf:resource="http://purl.org/dc/dcmitype/StillImage" />
        <dc:title></dc:title>
      </cc:Work>
    </rdf:RDF>
  </metadata>
  <defs
     id="defs758" />
  <sodipodi:namedview
     inkscape:current-layer="svg754"
     inkscape:window-maximized="0"
     inkscape:window-y="1171"
     inkscape:window-x="0"
     inkscape:cy="7.5"
     inkscape:cx="7.5"
     inkscape:zoom="20.933333"
     showgrid="false"
     id="namedview756"
     inkscape:window-height="480"
     inkscape:window-width="648"
     inkscape:pageshadow="2"
     inkscape:pageopacity="0"
     guidetolerance="10"
     gridtolerance="10"
     objecttolerance="10"
     borderopacity="1"
     inkscape:document-rotation="0"
     bordercolor="#666666"
     pagecolor="#ffffff" />
  <path
     style="fill:#ffffff"
     id="path752"
     d="M4.25 0h6c1.24 0 2.25 1 2.25 2.25v10.5c0 1.24-1 2.25-2.25 2.25h-6C3.01 15 2 14 2 12.75V2.25C2 1.01 3 0 4.25 0zm.38 1.5h-.38a.75.75 0 0 0-.75.75v10.5c0 .41.34.75.75.75h6c.41 0 .75-.34.75-.75V2.25a.75.75 0 0 0-.75-.75h-.38L9.6 2.66a.45.45 0 0 1-.44.34h-3.8a.45.45 0 0 1-.44-.34L4.62 1.5z"
     fill-rule="evenodd"
     fill="#FC0" />
</svg>
