<svg xmlns="http://www.w3.org/2000/svg" width="15" height="15"><path fill="#E4C520" fill-rule="evenodd" d="M4.25 11.197C2.307 10.16 1 8.221 1 6c0-3.314 2.91-6 6.5-6S14 2.686 14 6c0 2.22-1.307 4.16-3.25 5.197v1.553c0 1.243-1.091 2.25-2.438 2.25H6.688C5.34 15 4.25 13.993 4.25 12.75v-1.553zm4.875-.953c1.893-.618 3.25-2.285 3.25-4.244 0-2.485-2.183-4.5-4.875-4.5S2.625 3.515 2.625 6c0 1.96 1.357 3.626 3.25 4.244v2.506c0 .414.364.75.813.75h1.625c.448 0 .812-.336.812-.75v-2.506zm-3.25 1.006h3.25v1.5h-3.25v-1.5z"/></svg>
