<?xml version="1.0" encoding="UTF-8" standalone="no"?>
<svg
   xmlns:dc="http://purl.org/dc/elements/1.1/"
   xmlns:cc="http://creativecommons.org/ns#"
   xmlns:rdf="http://www.w3.org/1999/02/22-rdf-syntax-ns#"
   xmlns:svg="http://www.w3.org/2000/svg"
   xmlns="http://www.w3.org/2000/svg"
   xmlns:sodipodi="http://sodipodi.sourceforge.net/DTD/sodipodi-0.dtd"
   xmlns:inkscape="http://www.inkscape.org/namespaces/inkscape"
   inkscape:version="1.0beta2 (2b71d25, 2019-12-03)"
   sodipodi:docname="Utilities-white.svg"
   id="svg826"
   version="1.1"
   height="15"
   width="15">
  <metadata
     id="metadata832">
    <rdf:RDF>
      <cc:Work
         rdf:about="">
        <dc:format>image/svg+xml</dc:format>
        <dc:type
           rdf:resource="http://purl.org/dc/dcmitype/StillImage" />
        <dc:title></dc:title>
      </cc:Work>
    </rdf:RDF>
  </metadata>
  <defs
     id="defs830" />
  <sodipodi:namedview
     inkscape:current-layer="svg826"
     inkscape:window-maximized="0"
     inkscape:window-y="1171"
     inkscape:window-x="0"
     inkscape:cy="7.5"
     inkscape:cx="7.5"
     inkscape:zoom="20.933333"
     showgrid="false"
     id="namedview828"
     inkscape:window-height="480"
     inkscape:window-width="648"
     inkscape:pageshadow="2"
     inkscape:pageopacity="0"
     guidetolerance="10"
     gridtolerance="10"
     objecttolerance="10"
     borderopacity="1"
     inkscape:document-rotation="0"
     bordercolor="#666666"
     pagecolor="#ffffff" />
  <path
     style="fill:#ffffff"
     id="path824"
     d="M4.25 11.197C2.307 10.16 1 8.221 1 6c0-3.314 2.91-6 6.5-6S14 2.686 14 6c0 2.22-1.307 4.16-3.25 5.197v1.553c0 1.243-1.091 2.25-2.438 2.25H6.688C5.34 15 4.25 13.993 4.25 12.75v-1.553zm4.875-.953c1.893-.618 3.25-2.285 3.25-4.244 0-2.485-2.183-4.5-4.875-4.5S2.625 3.515 2.625 6c0 1.96 1.357 3.626 3.25 4.244v2.506c0 .414.364.75.813.75h1.625c.448 0 .812-.336.812-.75v-2.506zm-3.25 1.006h3.25v1.5h-3.25v-1.5z"
     fill-rule="evenodd"
     fill="#E4C520" />
</svg>
