<svg width="40" height="40" xmlns="http://www.w3.org/2000/svg"><g fill="none" fill-rule="evenodd"><circle fill="#B6C1D5" cx="20" cy="20" r="20"/><path d="M10.505 26.667V13.535a2.02 2.02 0 0 1 2.02-2.02h3.615a3.03 3.03 0 0 1 2.13.874l.638.63c.189.187.444.292.71.292h8.059a3.03 3.03 0 0 1 3.03 3.03v10.326a3.03 3.03 0 0 1-3.03 3.03H13.535a3.03 3.03 0 0 1-3.03-3.03zM28.687 16.34a1.01 1.01 0 0 0-1.01-1.01h-8.06a3.03 3.03 0 0 1-2.13-.874l-.637-.63a1.01 1.01 0 0 0-.71-.292h-3.615v13.131c0 .559.452 1.01 1.01 1.01h14.142a1.01 1.01 0 0 0 1.01-1.01V16.342z" fill="#223E7D"/></g></svg>