<svg width="40" height="40" xmlns="http://www.w3.org/2000/svg"><g fill="none" fill-rule="evenodd"><circle fill="#F8C3B6" cx="20" cy="20" r="20"/><path d="M16.364 30.707a2.02 2.02 0 1 1 0-4.04 2.02 2.02 0 0 1 0 4.04zm9.09 0a2.02 2.02 0 1 1 0-4.04 2.02 2.02 0 0 1 0 4.04zM10.907 13.535h-.603a1.01 1.01 0 0 1-1.01-1.01v-1.01c0-.558.452-1.01 1.01-1.01h1.743c1.599 0 1.928 1.18 2.087 2.729l.03.298h2.173c.03 0 .06.001.089.003h10.04a3.03 3.03 0 0 1 3.01 3.365l-.566 6.06a3.029 3.029 0 0 1-3.01 2.697h-9.96a3.03 3.03 0 0 1-3.011-2.696l-.828-8.344a1.2 1.2 0 0 0-1.194-1.082zm4.03 9.203c.057.511.489.898 1.004.898h9.959c.515 0 .943-.387 1-.898l.566-6.06c.004-.038.01-.075.01-.112a1.01 1.01 0 0 0-1.01-1.01H15.13a.8.8 0 0 0-.796.876l.602 6.306z" fill="#ED6D4E"/></g></svg>