<svg width="40" height="40" xmlns="http://www.w3.org/2000/svg"><g fill="none" fill-rule="evenodd"><circle fill="#6AA1ED" cx="20" cy="20" r="20"/><g transform="translate(11 11)"><path d="M0 0h18v18H0z"/><rect fill="#0F1E32" x="3" y="13.5" width="1.5" height="3" rx=".75"/><path d="M4.5 9.75V12A.75.75 0 0 1 3 12V2.25a.75.75 0 1 1 1.5 0c1.25-.5 2.25-.75 3-.75s1.5.25 2.25.75S11.25 3 12 3c.883 0 1.641-.25 2.275-.749.047-.037.12-.105.217-.205a.296.296 0 0 1 .508.207v6.51a.682.682 0 0 1-.147.423C14.12 10.062 13.17 10.5 12 10.5c-.75 0-1.5-.25-2.25-.75S8.25 9 7.5 9s-1.75.25-3 .75zm8.7-5.376A5.603 5.603 0 0 1 12 4.5c-1.062 0-2.096-.345-3.082-1.002C8.404 3.155 7.938 3 7.5 3c-.525 0-1.354.207-2.443.643l-.405.162a.242.242 0 0 0-.152.225v3.798a.224.224 0 0 0 .298.21C5.836 7.684 6.73 7.5 7.5 7.5c1.062 0 2.096.345 3.082 1.002.514.343.98.498 1.418.498.545 0 .98-.136 1.353-.431a.429.429 0 0 0 .147-.324V4.607a.24.24 0 0 0-.3-.233z" fill="#0F1E32"/></g></g></svg>