<svg width="40" height="40" xmlns="http://www.w3.org/2000/svg"><g fill="none" fill-rule="evenodd"><circle fill="#FFC1C1" cx="20" cy="20" r="20"/><path d="M8 8h24v24H8z"/><path d="M24.05 26h-8.1a2.5 2.5 0 1 1-4.847-.212A2 2 0 0 1 10 24V13a2 2 0 0 1 2-2h10a2 2 0 0 1 2 2v1h2.172a2 2 0 0 1 1.414.586l1.828 1.828A2 2 0 0 1 30 17.828V24a2 2 0 0 1-1.103 1.788A2.5 2.5 0 1 1 24.05 26zm.75-2h2.4a.8.8 0 0 0 .8-.8v-4.543a2 2 0 0 0-.586-1.414l-.657-.657A2 2 0 0 0 25.343 16H24.8a.8.8 0 0 0-.8.8v6.4a.8.8 0 0 0 .8.8zM22 20v-6.6a.4.4 0 0 0-.4-.4h-9.2a.4.4 0 0 0-.4.4v10.2c0 .22.18.4.4.4h9.2a.4.4 0 0 0 .4-.4V22h-8.2a.8.8 0 0 1-.8-.8v-.4a.8.8 0 0 1 .8-.8H22zm-8.5 7a.5.5 0 1 0 0-1 .5.5 0 0 0 0 1zm13 0a.5.5 0 1 0 0-1 .5.5 0 0 0 0 1z" fill="#FF4242"/></g></svg>